<?xml version="1.0" standalone="no"?>
<!DOCTYPE svg PUBLIC "-//W3C//DTD SVG 20010904//EN"
 "http://www.w3.org/TR/2001/REC-SVG-20010904/DTD/svg10.dtd">
<svg version="1.0" xmlns="http://www.w3.org/2000/svg"
 width="700.000000pt" height="700.000000pt" viewBox="0 0 700.000000 700.000000"
 preserveAspectRatio="xMidYMid meet">
<metadata>
Created by potrace 1.11, written by Peter Selinger 2001-2013
</metadata>
<g transform="translate(0.000000,700.000000) scale(0.100000,-0.100000)"
fill="#000000" stroke="none">
<path d="M0 3500 l0 -3500 3500 0 3500 0 0 3500 0 3500 -3500 0 -3500 0 0
-3500z m2923 1839 c324 -28 606 -156 807 -365 80 -83 162 -194 190 -256 l12
-26 58 71 c244 307 556 495 933 563 136 25 425 23 577 -4 271 -49 467 -142
637 -305 213 -204 335 -490 372 -871 7 -70 11 -508 11 -1218 l0 -1108 -610 0
-610 0 0 1081 c0 723 -4 1104 -11 1152 -48 323 -191 458 -484 459 -66 0 -137
-6 -178 -16 -238 -56 -409 -237 -491 -520 -59 -201 -59 -210 -63 -1223 l-4
-933 -610 0 -609 0 0 998 c0 1023 -4 1154 -41 1334 -30 153 -70 228 -148 282
-163 113 -487 104 -676 -19 -183 -119 -307 -355 -344 -655 -7 -54 -11 -423
-11 -1012 l0 -928 -615 0 -615 0 0 1720 0 1720 615 0 615 0 0 -247 0 -248 32
40 c204 252 461 420 756 496 174 44 316 55 505 38z"/>
</g>
</svg>
