<svg xmlns="http://www.w3.org/2000/svg" width="582" height="135" style=""><rect id="backgroundrect" width="100%" height="100%" x="0" y="0" fill="none" stroke="none"/>
 <!-- Created with Method Draw - http://github.com/duopixel/Method-Draw/ -->

 <g style="">
  <title>background</title>
  <rect fill="#fff" id="canvas_background" height="137" width="584" y="-1" x="-1"/>
  <g display="none" overflow="visible" y="0" x="0" height="100%" width="100%" id="canvasGrid">
   <rect fill="url(#gridpattern)" stroke-width="0" y="43.400718688964844" x="1" height="400" width="580" id="svg_1"/>
  </g>
 </g>
 <g style="" class="currentLayer">
  <title>Layer 1</title>
  <g stroke="null" id="svg_14" class="selected" fill="#d50b0b" fill-opacity="1">
   <g fill="#d50b0b" id="svg_4" fill-opacity="1">
    <path stroke="null" id="svg_6" d="m521.3166622382414,132.32422813563608 c-1.460723379159769,-2.5115828939017417 -3.952545614197022,-3.284377630486893 -3.952545614197022,-1.159192104877727 c0,0.7727947365851513 -0.257774713969371,0.7727947365851513 -0.687399237251656,0.09659934207314391 c-0.7733241419081129,-1.3523907890240148 -7.217691991142388,-4.057172367072044 -8.420640656332786,-3.5741756567063248 c-0.515549427938742,0.19319868414628782 -1.6325731884726828,-0.7727947365851513 -2.405897330380796,-2.125185525609166 c-1.890347902442054,-3.187778288413749 -3.2651463769453657,-3.091178946340605 -2.921446758319538,0.19319868414628782 c0.257774713969371,2.6081822359748856 0.085924904656457,2.6081822359748856 -3.6947709002276508,2.6081822359748856 c-2.234047521067882,-0.09659934207314391 -4.468095042135764,-0.38639736829257565 -4.9836444700745055,-0.7727947365851513 c-0.515549427938742,-0.38639736829257565 -0.945173951221027,-0.09659934207314391 -0.945173951221027,0.7727947365851513 c0,2.7047815780480295 -1.7184980931291398,1.6421888152434465 -1.804422997785597,-1.062592762804583 l0,-2.7047815780480295 l-1.288873569846855,2.125185525609166 l-1.374798474503312,2.125185525609166 l-2.921446758319538,-1.9319868414628782 c-1.804422997785597,-1.062592762804583 -4.639944851448678,-1.8353874993897343 -7.217691991142388,-1.8353874993897343 c-3.6947709002276508,0 -4.210320328166393,-0.28979802621943174 -4.468095042135764,-2.125185525609166 c-0.171849809312914,-1.8353874993897343 -0.601474332595199,-1.4489901310971587 -2.148122616411425,2.318384209755454 c-2.405897330380796,5.69936118231549 -3.6947709002276508,6.66535460304693 -3.6947709002276508,2.8013809201211735 c0,-2.9945796042674613 -1.202948665190398,-4.057172367072044 -1.976272807098511,-1.7387881573165904 c-0.257774713969371,0.7727947365851513 -0.8592490465645699,0.48299671036571956 -1.890347902442054,-0.9659934207314391 c-1.804422997785597,-2.8979802621943174 -2.835521853663081,-2.8013809201211735 -3.952545614197022,0.48299671036571956 c-0.8592490465645699,2.414983551828598 -1.031098855877484,2.5115828939017417 -1.976272807098511,0.9659934207314391 c-0.601474332595199,-0.9659934207314391 -1.5466482838162259,-1.7387881573165904 -2.148122616411425,-1.7387881573165904 c-0.515549427938742,0 -1.202948665190398,-0.6761953945120074 -1.460723379159769,-1.4489901310971587 c-0.687399237251656,-1.8353874993897343 -3.2651463769453657,-1.8353874993897343 -4.554019946792221,-0.09659934207314391 c-0.601474332595199,0.8693940786582952 -2.062197711754968,1.159192104877727 -3.780695804884108,0.8693940786582952 c-7.045842181829474,-1.062592762804583 -8.764340274958613,-0.8693940786582952 -9.623589321523184,1.3523907890240148 c-0.42962452328228495,1.159192104877727 -1.804422997785597,2.318384209755454 -3.007371662975995,2.5115828939017417 c-2.319972425724339,0.5795960524388635 -4.639944851448678,-0.8693940786582952 -3.780695804884108,-2.318384209755454 c0.257774713969371,-0.48299671036571956 -0.343699618625828,-0.8693940786582952 -1.288873569846855,-0.8693940786582952 c-1.031098855877484,0 -1.804422997785597,0.28979802621943174 -1.804422997785597,0.7727947365851513 c0,0.38639736829257565 -1.460723379159769,0.6761953945120074 -3.2651463769453657,0.7727947365851513 c-1.7184980931291398,0.09659934207314391 -2.4918222350372528,-0.09659934207314391 -1.6325731884726828,-0.28979802621943174 c1.976272807098511,-0.5795960524388635 1.890347902442054,-2.414983551828598 -0.257774713969371,-3.9605730249989004 c-1.5466482838162259,-1.062592762804583 -1.7184980931291398,-0.9659934207314391 -1.7184980931291398,0.7727947365851513 c0,1.5455894731703026 -0.601474332595199,1.9319868414628782 -3.4369961862582796,2.028586183536022 c-5.327344088700333,0.19319868414628782 -5.5851188026697045,0.28979802621943174 -5.5851188026697045,1.8353874993897343 c0,0.7727947365851513 -0.687399237251656,1.5455894731703026 -1.460723379159769,1.7387881573165904 c-1.117023760533941,0.19319868414628782 -1.5466482838162259,-0.28979802621943174 -1.5466482838162259,-1.6421888152434465 c0,-1.159192104877727 -0.343699618625828,-2.028586183536022 -0.8592490465645699,-2.028586183536022 c-0.42962452328228495,0 -0.8592490465645699,0.5795960524388635 -0.8592490465645699,1.2557914469508709 c0,0.7727947365851513 -0.257774713969371,0.7727947365851513 -0.7733241419081129,-0.19319868414628782 c-0.687399237251656,-1.159192104877727 -1.031098855877484,-1.159192104877727 -2.148122616411425,-0.19319868414628782 c-1.202948665190398,1.062592762804583 -1.374798474503312,1.062592762804583 -1.374798474503312,-0.38639736829257565 c0,-1.159192104877727 -0.515549427938742,-1.5455894731703026 -1.7184980931291398,-1.159192104877727 c-0.945173951221027,0.28979802621943174 -1.5466482838162259,0.09659934207314391 -1.202948665190398,-0.38639736829257565 c0.257774713969371,-0.48299671036571956 -0.7733241419081129,-0.8693940786582952 -2.148122616411425,-0.8693940786582952 c-1.460723379159769,0 -2.57774713969371,0.28979802621943174 -2.405897330380796,0.7727947365851513 c0.085924904656457,0.38639736829257565 -0.687399237251656,1.7387881573165904 -1.7184980931291398,2.9945796042674613 c-1.976272807098511,2.414983551828598 -4.9836444700745055,2.414983551828598 -4.9836444700745055,0.09659934207314391 c0,-1.062592762804583 -0.8592490465645699,-1.3523907890240148 -3.179221472288909,-1.159192104877727 c-1.890347902442054,0.19319868414628782 -4.038470518853479,-0.28979802621943174 -5.327344088700333,-1.2557914469508709 c-1.7184980931291398,-1.3523907890240148 -2.4918222350372528,-1.4489901310971587 -3.4369961862582796,-0.5795960524388635 c-0.945173951221027,0.8693940786582952 -2.148122616411425,0.8693940786582952 -5.15549427938742,0 c-2.148122616411425,-0.5795960524388635 -4.468095042135764,-0.8693940786582952 -5.15549427938742,-0.5795960524388635 c-0.8592490465645699,0.38639736829257565 -1.117023760533941,0.09659934207314391 -0.7733241419081129,-0.8693940786582952 c0.257774713969371,-0.7727947365851513 -0.085924904656457,-1.3523907890240148 -0.945173951221027,-1.3523907890240148 c-0.7733241419081129,0 -1.374798474503312,0.28979802621943174 -1.374798474503312,0.7727947365851513 c0,0.38639736829257565 -0.945173951221027,1.159192104877727 -2.148122616411425,1.8353874993897343 c-1.202948665190398,0.5795960524388635 -2.148122616411425,0.6761953945120074 -2.148122616411425,0.19319868414628782 c0,-0.48299671036571956 -1.202948665190398,-0.8693940786582952 -2.6636720443501667,-0.8693940786582952 c-2.234047521067882,0 -2.4918222350372528,-0.28979802621943174 -1.7184980931291398,-1.3523907890240148 c0.7733241419081129,-0.9659934207314391 0.515549427938742,-1.6421888152434465 -1.117023760533941,-2.8013809201211735 c-1.7184980931291398,-1.3523907890240148 -2.234047521067882,-1.3523907890240148 -3.608845995571194,-0.19319868414628782 c-1.890347902442054,1.5455894731703026 -4.9836444700745055,1.9319868414628782 -4.210320328166393,0.48299671036571956 c0.343699618625828,-0.6761953945120074 -1.5466482838162259,-0.7727947365851513 -5.756968611982619,-0.38639736829257565 c-4.811794660761592,0.48299671036571956 -6.616217658547189,1.062592762804583 -7.819166323737587,2.5115828939017417 c-1.288873569846855,1.7387881573165904 -1.890347902442054,1.8353874993897343 -4.811794660761592,0.9659934207314391 c-2.749596949006624,-0.7727947365851513 -3.608845995571194,-0.5795960524388635 -4.725869756105134,0.5795960524388635 c-1.5466482838162259,1.7387881573165904 -6.616217658547189,1.7387881573165904 -12.115411556560437,0 c-1.890347902442054,-0.5795960524388635 -4.124395423509936,-0.9659934207314391 -4.9836444700745055,-0.8693940786582952 c-0.8592490465645699,0.09659934207314391 -2.319972425724339,-0.48299671036571956 -3.179221472288909,-1.3523907890240148 c-2.148122616411425,-2.125185525609166 -5.499193898013248,-0.9659934207314391 -8.162865942363414,2.8013809201211735 c-1.976272807098511,2.8013809201211735 -2.148122616411425,2.8013809201211735 -2.148122616411425,0.8693940786582952 c0,-2.414983551828598 0.8592490465645699,-2.22178486768231 -12.974660603125006,-2.7047815780480295 c-1.6325731884726828,-0.09659934207314391 -3.522921090914737,-0.48299671036571956 -4.038470518853479,-0.8693940786582952 c-0.601474332595199,-0.38639736829257565 -1.460723379159769,-0.38639736829257565 -1.890347902442054,-0.09659934207314391 c-0.515549427938742,0.38639736829257565 -1.5466482838162259,0.09659934207314391 -2.234047521067882,-0.5795960524388635 c-1.117023760533941,-1.062592762804583 -1.5466482838162259,-0.9659934207314391 -2.148122616411425,0.38639736829257565 c-1.031098855877484,2.028586183536022 -2.4918222350372528,2.125185525609166 -2.4918222350372528,0.28979802621943174 c0,-1.5455894731703026 -2.6636720443501667,-2.9945796042674613 -3.351071281601823,-1.7387881573165904 c-0.8592490465645699,1.4489901310971587 -4.639944851448678,2.125185525609166 -5.756968611982619,1.062592762804583 c-0.687399237251656,-0.6761953945120074 -1.202948665190398,-0.6761953945120074 -1.6325731884726828,0.09659934207314391 c-0.257774713969371,0.48299671036571956 -1.804422997785597,0.9659934207314391 -3.4369961862582796,0.9659934207314391 c-1.5466482838162259,0 -3.007371662975995,0.38639736829257565 -3.179221472288909,0.8693940786582952 c-0.085924904656457,0.5795960524388635 -1.890347902442054,0.6761953945120074 -3.8666207095405647,0.38639736829257565 c-2.57774713969371,-0.38639736829257565 -3.4369961862582796,-0.8693940786582952 -3.0932965676324518,-1.8353874993897343 c0.257774713969371,-0.7727947365851513 -0.085924904656457,-1.3523907890240148 -0.8592490465645699,-1.3523907890240148 c-0.687399237251656,0 -1.460723379159769,-0.6761953945120074 -1.804422997785597,-1.4489901310971587 c-0.343699618625828,-1.159192104877727 -1.374798474503312,-1.3523907890240148 -5.069569374730963,-0.8693940786582952 c-3.6947709002276508,0.48299671036571956 -4.897719565418049,0.28979802621943174 -6.100668230608447,-1.062592762804583 c-1.460723379159769,-1.6421888152434465 -1.6325731884726828,-1.6421888152434465 -3.522921090914737,0.9659934207314391 c-1.890347902442054,2.8013809201211735 -1.890347902442054,2.8013809201211735 -2.4918222350372528,0.6761953945120074 c-0.343699618625828,-1.159192104877727 -0.8592490465645699,-2.125185525609166 -1.202948665190398,-2.22178486768231 c-0.343699618625828,0 -1.6325731884726828,-0.19319868414628782 -3.007371662975995,-0.38639736829257565 c-1.288873569846855,-0.19319868414628782 -2.319972425724339,-0.09659934207314391 -2.319972425724339,0.28979802621943174 c0,1.159192104877727 -7.217691991142388,1.2557914469508709 -7.819166323737587,0.09659934207314391 c-0.343699618625828,-0.7727947365851513 -1.117023760533941,-0.6761953945120074 -2.405897330380796,0.19319868414628782 c-1.460723379159769,1.062592762804583 -2.148122616411425,1.062592762804583 -3.522921090914737,0.09659934207314391 c-2.148122616411425,-1.4489901310971587 -7.905091228394044,-1.5455894731703026 -9.279889702897355,0 c-0.601474332595199,0.6761953945120074 -1.031098855877484,1.9319868414628782 -1.031098855877484,2.8979802621943174 c0,1.159192104877727 -0.687399237251656,1.7387881573165904 -2.062197711754968,1.7387881573165904 c-1.117023760533941,0 -2.749596949006624,0.28979802621943174 -3.608845995571194,0.6761953945120074 c-1.460723379159769,0.5795960524388635 -1.460723379159769,0.48299671036571956 -0.085924904656457,-1.6421888152434465 c2.062197711754968,-3.284377630486893 1.890347902442054,-6.761953945120074 -0.257774713969371,-6.761953945120074 c-0.945173951221027,0 -1.976272807098511,0.09659934207314391 -2.319972425724339,0.28979802621943174 c-1.031098855877484,0.28979802621943174 -1.202948665190398,3.380976972560037 -0.257774713969371,4.057172367072044 c2.062197711754968,1.4489901310971587 0.601474332595199,2.5115828939017417 -2.835521853663081,2.028586183536022 c-1.976272807098511,-0.28979802621943174 -6.272518039921361,-0.7727947365851513 -9.451739512210269,-1.159192104877727 c-5.241419184043877,-0.48299671036571956 -5.842893516639076,-0.7727947365851513 -5.5851188026697045,-2.5115828939017417 c0.343699618625828,-2.9945796042674613 -1.7184980931291398,-3.284377630486893 -2.749596949006624,-0.38639736829257565 c-0.42962452328228495,1.3523907890240148 -1.202948665190398,2.5115828939017417 -1.7184980931291398,2.5115828939017417 c-0.42962452328228495,0 -0.8592490465645699,0.5795960524388635 -0.8592490465645699,1.2557914469508709 c0,0.5795960524388635 -1.031098855877484,1.7387881573165904 -2.319972425724339,2.318384209755454 c-1.804422997785597,0.9659934207314391 -2.405897330380796,0.9659934207314391 -3.007371662975995,0 c-0.343699618625828,-0.6761953945120074 -0.085924904656457,-1.4489901310971587 0.8592490465645699,-1.8353874993897343 c1.031098855877484,-0.48299671036571956 0.7733241419081129,-0.6761953945120074 -0.945173951221027,-0.6761953945120074 c-1.7184980931291398,-0.09659934207314391 -2.57774713969371,-0.6761953945120074 -2.921446758319538,-2.028586183536022 c-0.601474332595199,-2.5115828939017417 -2.4918222350372528,-2.5115828939017417 -3.780695804884108,0.09659934207314391 c-0.7733241419081129,1.7387881573165904 -1.460723379159769,1.9319868414628782 -4.725869756105134,1.3523907890240148 c-2.062197711754968,-0.28979802621943174 -3.780695804884108,-0.28979802621943174 -3.780695804884108,0.19319868414628782 c0,0.38639736829257565 -0.7733241419081129,1.3523907890240148 -1.7184980931291398,2.028586183536022 c-1.374798474503312,0.9659934207314391 -2.062197711754968,0.9659934207314391 -3.4369961862582796,0 c-0.945173951221027,-0.6761953945120074 -1.7184980931291398,-1.7387881573165904 -1.7184980931291398,-2.318384209755454 c0,-1.9319868414628782 -4.210320328166393,-3.284377630486893 -8.248790847019873,-2.6081822359748856 c-3.522921090914737,0.48299671036571956 -3.952545614197022,0.38639736829257565 -4.3821701374793065,-1.5455894731703026 c-0.42962452328228495,-1.9319868414628782 -0.8592490465645699,-2.125185525609166 -4.468095042135764,-1.7387881573165904 c-2.148122616411425,0.28979802621943174 -5.241419184043877,0.8693940786582952 -6.873992372516559,1.2557914469508709 c-2.062197711754968,0.48299671036571956 -3.2651463769453657,0.28979802621943174 -3.8666207095405647,-0.6761953945120074 c-0.515549427938742,-0.7727947365851513 -1.890347902442054,-1.9319868414628782 -3.007371662975995,-2.6081822359748856 c-2.405897330380796,-1.5455894731703026 -3.522921090914737,-0.38639736829257565 -3.522921090914737,3.6707749987794687 l0,2.414983551828598 l-2.234047521067882,-2.7047815780480295 c-1.890347902442054,-2.318384209755454 -2.57774713969371,-2.6081822359748856 -5.327344088700333,-2.028586183536022 c-2.921446758319538,0.5795960524388635 -7.9910161330505005,4.057172367072044 -7.045842181829474,4.733367761584052 c0.257774713969371,0.19319868414628782 0.171849809312914,0.6761953945120074 -0.171849809312914,1.062592762804583 c-0.42962452328228495,0.38639736829257565 -0.687399237251656,-0.09659934207314391 -0.687399237251656,-1.159192104877727 c0,-0.9659934207314391 -0.42962452328228495,-2.5115828939017417 -0.8592490465645699,-3.284377630486893 c-0.687399237251656,-1.2557914469508709 -0.945173951221027,-1.159192104877727 -2.062197711754968,0.48299671036571956 c-1.288873569846855,1.9319868414628782 -1.288873569846855,1.8353874993897343 -1.374798474503312,-0.48299671036571956 c0,-1.3523907890240148 -0.343699618625828,-2.9945796042674613 -0.7733241419081129,-3.7673743408526126 c-0.601474332595199,-1.062592762804583 -0.8592490465645699,-0.8693940786582952 -1.374798474503312,0.8693940786582952 c-0.42962452328228495,1.5455894731703026 -0.7733241419081129,1.8353874993897343 -1.288873569846855,0.9659934207314391 c-1.031098855877484,-1.8353874993897343 -4.897719565418049,-2.028586183536022 -5.499193898013248,-0.28979802621943174 c-0.42962452328228495,1.159192104877727 -0.7733241419081129,1.2557914469508709 -1.804422997785597,0.28979802621943174 c-0.687399237251656,-0.5795960524388635 -1.6325731884726828,-0.8693940786582952 -2.062197711754968,-0.5795960524388635 c-0.515549427938742,0.38639736829257565 -1.6325731884726828,0.09659934207314391 -2.4918222350372528,-0.48299671036571956 c-2.57774713969371,-1.7387881573165904 -4.210320328166393,-0.38639736829257565 -4.897719565418049,3.8639736829257565 c-0.515549427938742,3.7673743408526126 -0.601474332595199,3.8639736829257565 -2.835521853663081,2.8013809201211735 c-2.57774713969371,-1.2557914469508709 -4.639944851448678,-3.5741756567063248 -4.038470518853479,-4.636768419510908 c0.257774713969371,-0.38639736829257565 -0.171849809312914,-1.2557914469508709 -0.7733241419081129,-1.8353874993897343 c-0.8592490465645699,-0.7727947365851513 -1.374798474503312,-0.8693940786582952 -1.804422997785597,-0.09659934207314391 c-1.031098855877484,1.8353874993897343 -3.2651463769453657,1.062592762804583 -2.749596949006624,-0.9659934207314391 c0.257774713969371,-1.062592762804583 0.171849809312914,-2.125185525609166 -0.171849809312914,-2.414983551828598 c-0.687399237251656,-0.38639736829257565 -1.460723379159769,1.159192104877727 -3.4369961862582796,6.568755260973786 c-0.601474332595199,1.8353874993897343 -1.460723379159769,2.6081822359748856 -2.234047521067882,2.22178486768231 c-0.687399237251656,-0.28979802621943174 -1.460723379159769,-0.09659934207314391 -1.7184980931291398,0.28979802621943174 c-0.7733241419081129,1.4489901310971587 -3.6947709002276508,0 -4.124395423509936,-1.9319868414628782 c-0.515549427938742,-2.22178486768231 -2.57774713969371,-2.414983551828598 -4.29624523282285,-0.38639736829257565 c-1.7184980931291398,1.9319868414628782 -20.965676736175507,1.4489901310971587 -22.08270049670945,-0.48299671036571956 c-0.601474332595199,-1.062592762804583 -0.945173951221027,-1.062592762804583 -2.062197711754968,-0.09659934207314391 c-1.202948665190398,1.159192104877727 -1.374798474503312,0.8693940786582952 -1.374798474503312,-2.6081822359748856 c0,-2.22178486768231 -0.515549427938742,-4.3469703932914765 -1.288873569846855,-5.023165787803483 c-1.117023760533941,-1.062592762804583 -1.288873569846855,-5.5061624981692034 -1.288873569846855,-29.076401964016316 c0,-30.428792753040334 -0.343699618625828,-28.88320327987003 5.15549427938742,-26.66141841218772 c3.522921090914737,1.3523907890240148 5.241419184043877,2.7047815780480295 10.740613082057125,8.210944076217233 c2.234047521067882,2.22178486768231 4.725869756105134,4.057172367072044 5.5851188026697045,4.057172367072044 c0.945173951221027,0 1.890347902442054,0.48299671036571956 2.148122616411425,0.9659934207314391 c0.257774713969371,0.5795960524388635 2.405897330380796,0.9659934207314391 4.725869756105134,0.9659934207314391 c3.4369961862582796,0 4.725869756105134,0.48299671036571956 7.13176708648593,2.8013809201211735 c3.522921090914737,3.477576314633181 6.444367849234275,4.44356973536462 16.325731884726828,5.216364471949771 c2.835521853663081,0.19319868414628782 3.608845995571194,-0.28979802621943174 5.671043707326162,-3.284377630486893 c1.6325731884726828,-2.22178486768231 2.749596949006624,-5.119765129876628 3.0932965676324518,-8.210944076217233 c0.687399237251656,-5.989159208534923 3.522921090914737,-12.944311837801283 5.15549427938742,-12.944311837801283 c1.5466482838162259,0 7.303616895798845,-6.568755260973786 7.303616895798845,-8.307543418290376 c0,-0.7727947365851513 1.460723379159769,-2.125185525609166 3.179221472288909,-2.9945796042674613 c3.179221472288909,-1.7387881573165904 7.905091228394044,-8.210944076217233 7.9910161330505005,-10.915725654265263 c0,-0.7727947365851513 1.7184980931291398,-3.5741756567063248 3.8666207095405647,-6.085758550608066 c3.6947709002276508,-4.44356973536462 3.8666207095405647,-5.023165787803483 3.8666207095405647,-10.432728943899543 c0,-3.187778288413749 0.343699618625828,-5.69936118231549 0.8592490465645699,-5.69936118231549 c0.515549427938742,0 0.8592490465645699,2.8979802621943174 0.8592490465645699,6.66535460304693 c0,5.989159208534923 0.171849809312914,6.66535460304693 1.890347902442054,7.1483513134126495 c1.031098855877484,0.38639736829257565 1.6325731884726828,0.8693940786582952 1.288873569846855,1.2557914469508709 c-1.117023760533941,1.2557914469508709 2.405897330380796,3.187778288413749 5.928818421295532,3.284377630486893 c2.062197711754968,0 5.5851188026697045,1.159192104877727 8.5924904656457,2.8013809201211735 c2.749596949006624,1.5455894731703026 5.842893516639076,2.9945796042674613 6.7880674678601025,3.284377630486893 c3.179221472288909,0.9659934207314391 11.170237605339409,5.023165787803483 12.373186270529807,6.278957234754355 c0.687399237251656,0.7727947365851513 1.976272807098511,1.062592762804583 2.835521853663081,0.8693940786582952 c0.8592490465645699,-0.28979802621943174 5.928818421295532,0.19319868414628782 11.170237605339409,0.9659934207314391 l9.537664416866727,1.5455894731703026 l1.804422997785597,-2.8013809201211735 c0.945173951221027,-1.5455894731703026 2.6636720443501667,-3.6707749987794687 3.780695804884108,-4.733367761584052 c1.117023760533941,-1.062592762804583 2.835521853663081,-2.7047815780480295 3.6947709002276508,-3.5741756567063248 c0.8592490465645699,-0.9659934207314391 2.57774713969371,-1.7387881573165904 3.780695804884108,-1.7387881573165904 c1.202948665190398,0 3.0932965676324518,-0.5795960524388635 4.124395423509936,-1.3523907890240148 c1.031098855877484,-0.7727947365851513 4.124395423509936,-1.8353874993897343 6.873992372516559,-2.5115828939017417 c4.468095042135764,-0.9659934207314391 5.241419184043877,-0.9659934207314391 6.616217658547189,0.48299671036571956 c1.7184980931291398,1.7387881573165904 2.062197711754968,1.6421888152434465 11.943561747247523,-3.6707749987794687 c1.117023760533941,-0.6761953945120074 4.038470518853479,-1.062592762804583 6.530292753890731,-0.8693940786582952 c6.358442944577818,0.38639736829257565 10.912462891370039,-1.9319868414628782 13.747984745033119,-6.858553287193217 c3.952545614197022,-6.761953945120074 6.01474332595199,-8.307543418290376 10.482838368087753,-7.921146049997801 c2.319972425724339,0.19319868414628782 4.639944851448678,1.159192104877727 5.756968611982619,2.22178486768231 c0.945173951221027,1.062592762804583 2.57774713969371,2.125185525609166 3.608845995571194,2.5115828939017417 c1.804422997785597,0.5795960524388635 7.819166323737587,11.688520390850414 9.881364035492554,18.160676309751054 c0.601474332595199,2.028586183536022 1.804422997785597,3.8639736829257565 2.57774713969371,4.153771709145188 c1.6325731884726828,0.5795960524388635 2.4918222350372528,3.284377630486893 2.4918222350372528,8.500742102436664 c0,1.9319868414628782 0.257774713969371,3.5741756567063248 0.687399237251656,3.5741756567063248 c0.7733241419081129,0 2.749596949006624,4.733367761584052 2.749596949006624,6.568755260973786 c0,3.380976972560037 6.100668230608447,9.659934207314391 8.85026517961507,9.080338154875527 c0.343699618625828,-0.09659934207314391 0.601474332595199,0.48299671036571956 0.601474332595199,1.2557914469508709 c0,1.9319868414628782 2.6636720443501667,3.380976972560037 8.420640656332786,4.3469703932914765 c3.8666207095405647,0.6761953945120074 5.327344088700333,1.5455894731703026 7.13176708648593,3.8639736829257565 c1.374798474503312,1.8353874993897343 3.007371662975995,2.8979802621943174 4.3821701374793065,2.8979802621943174 c1.7184980931291398,0 2.319972425724339,-0.6761953945120074 3.179221472288909,-3.8639736829257565 c0.601474332595199,-2.125185525609166 0.7733241419081129,-4.3469703932914765 0.515549427938742,-4.829967103657196 c-0.257774713969371,-0.5795960524388635 -0.257774713969371,-2.8979802621943174 0.085924904656457,-5.312963814022915 c0.42962452328228495,-3.380976972560037 0.8592490465645699,-4.3469703932914765 2.148122616411425,-4.3469703932914765 c1.202948665190398,0 1.6325731884726828,0.6761953945120074 1.6325731884726828,2.414983551828598 c0,4.3469703932914765 1.374798474503312,2.5115828939017417 2.4918222350372528,-3.284377630486893 c0.601474332595199,-3.187778288413749 1.6325731884726828,-5.989159208534923 2.319972425724339,-6.278957234754355 c0.687399237251656,-0.28979802621943174 1.202948665190398,-1.159192104877727 1.202948665190398,-2.028586183536022 c0,-0.8693940786582952 0.7733241419081129,-1.4489901310971587 2.062197711754968,-1.4489901310971587 c2.234047521067882,0 2.405897330380796,0.48299671036571956 3.522921090914737,9.949732233533823 c0.343699618625828,2.9945796042674613 0.945173951221027,4.540169077437763 1.7184980931291398,4.540169077437763 c0.7733241419081129,0 1.460723379159769,1.4489901310971587 1.804422997785597,3.8639736829257565 c0.515549427938742,3.7673743408526126 2.062197711754968,5.409563156096059 2.062197711754968,2.22178486768231 c0,-1.5455894731703026 0.085924904656457,-1.5455894731703026 1.460723379159769,0 c1.117023760533941,1.2557914469508709 1.6325731884726828,3.6707749987794687 1.804422997785597,9.273536839021816 c0.343699618625828,7.534748681705225 0.343699618625828,7.631348023778369 2.835521853663081,8.210944076217233 c1.374798474503312,0.28979802621943174 2.4918222350372528,1.159192104877727 2.4918222350372528,1.9319868414628782 c0,1.6421888152434465 1.804422997785597,2.8979802621943174 5.413268993356791,3.8639736829257565 c2.148122616411425,0.5795960524388635 2.4918222350372528,0.28979802621943174 4.3821701374793065,-4.540169077437763 c1.117023760533941,-2.8979802621943174 2.6636720443501667,-5.5061624981692034 3.4369961862582796,-5.795960524388635 c0.7733241419081129,-0.38639736829257565 1.374798474503312,-1.2557914469508709 1.374798474503312,-1.9319868414628782 c0,-0.7727947365851513 0.687399237251656,-2.414983551828598 1.6325731884726828,-3.6707749987794687 c0.8592490465645699,-1.2557914469508709 2.062197711754968,-4.057172367072044 2.6636720443501667,-6.18235789268121 c0.601474332595199,-2.125185525609166 1.6325731884726828,-4.250371051218332 2.234047521067882,-4.636768419510908 c0.601474332595199,-0.38639736829257565 1.5466482838162259,-2.318384209755454 1.976272807098511,-4.3469703932914765 c0.515549427938742,-1.9319868414628782 1.890347902442054,-4.829967103657196 3.179221472288909,-6.278957234754355 c1.804422997785597,-2.22178486768231 2.234047521067882,-3.8639736829257565 2.57774713969371,-9.176937496948671 c0.7733241419081129,-14.103503942679012 2.57774713969371,-18.74027236218992 6.616217658547189,-17.00148420487333 c1.031098855877484,0.38639736829257565 1.374798474503312,-0.19319868414628782 1.6325731884726828,-2.7047815780480295 c0.171849809312914,-2.5115828939017417 0.687399237251656,-3.284377630486893 2.319972425724339,-3.477576314633181 c1.374798474503312,-0.28979802621943174 2.57774713969371,0.38639736829257565 3.522921090914737,1.7387881573165904 l1.460723379159769,2.22178486768231 l1.804422997785597,-2.028586183536022 c0.945173951221027,-1.062592762804583 2.062197711754968,-3.8639736829257565 2.4918222350372528,-6.18235789268121 c0.601474332595199,-3.5741756567063248 1.031098855877484,-4.153771709145188 3.179221472288909,-4.44356973536462 c1.288873569846855,-0.19319868414628782 3.007371662975995,0 3.780695804884108,0.38639736829257565 c2.6636720443501667,1.2557914469508709 4.897719565418049,1.5455894731703026 12.630960984499179,1.6421888152434465 c6.100668230608447,0.19319868414628782 7.733241419081129,0.48299671036571956 7.9910161330505005,1.6421888152434465 c0.343699618625828,1.7387881573165904 6.272518039921361,5.023165787803483 10.482838368087753,5.795960524388635 c2.6636720443501667,0.48299671036571956 3.007371662975995,0.8693940786582952 3.522921090914737,4.250371051218332 c0.343699618625828,2.125185525609166 1.288873569846855,4.44356973536462 2.148122616411425,5.119765129876628 c1.5466482838162259,1.2557914469508709 1.7184980931291398,0.9659934207314391 2.6636720443501667,-5.602761840242347 c0.601474332595199,-3.8639736829257565 1.6325731884726828,-7.727947365851513 2.405897330380796,-8.500742102436664 c1.288873569846855,-1.4489901310971587 1.5466482838162259,-1.3523907890240148 3.0932965676324518,0.7727947365851513 c0.8592490465645699,1.2557914469508709 1.6325731884726828,3.477576314633181 1.6325731884726828,5.023165787803483 c0,2.318384209755454 0.343699618625828,2.8013809201211735 2.148122616411425,2.8013809201211735 c1.5466482838162259,0 2.148122616411425,-0.48299671036571956 2.148122616411425,-1.8353874993897343 c0,-2.318384209755454 2.148122616411425,-4.3469703932914765 3.8666207095405647,-3.5741756567063248 c0.687399237251656,0.28979802621943174 1.288873569846855,1.5455894731703026 1.288873569846855,2.8979802621943174 c0,2.5115828939017417 2.4918222350372528,4.250371051218332 3.522921090914737,2.414983551828598 c0.8592490465645699,-1.5455894731703026 3.351071281601823,-0.28979802621943174 3.4369961862582796,1.7387881573165904 c0.085924904656457,0.9659934207314391 0.343699618625828,0.19319868414628782 0.687399237251656,-1.6421888152434465 c0.343699618625828,-2.5115828939017417 0.945173951221027,-3.380976972560037 2.234047521067882,-3.380976972560037 c1.202948665190398,0 1.804422997785597,0.7727947365851513 1.976272807098511,2.6081822359748856 c0.171849809312914,1.6421888152434465 0.945173951221027,2.7047815780480295 2.148122616411425,3.091178946340605 c1.031098855877484,0.28979802621943174 2.921446758319538,1.6421888152434465 4.210320328166393,2.9945796042674613 c1.288873569846855,1.3523907890240148 3.0932965676324518,2.414983551828598 3.952545614197022,2.414983551828598 c2.062197711754968,0 5.756968611982619,1.7387881573165904 9.108039893584442,4.250371051218332 c2.234047521067882,1.7387881573165904 2.4918222350372528,1.7387881573165904 3.2651463769453657,0.28979802621943174 c1.890347902442054,-3.8639736829257565 8.764340274958613,-5.5061624981692034 14.435383982284776,-3.6707749987794687 c3.608845995571194,1.2557914469508709 6.616217658547189,-1.159192104877727 7.303616895798845,-5.795960524388635 c0.601474332595199,-3.6707749987794687 2.921446758319538,-7.631348023778369 4.554019946792221,-7.631348023778369 c1.976272807098511,0 3.780695804884108,2.8979802621943174 4.210320328166393,6.761953945120074 c0.257774713969371,2.414983551828598 1.031098855877484,4.733367761584052 1.6325731884726828,5.119765129876628 c0.687399237251656,0.38639736829257565 1.202948665190398,1.5455894731703026 1.202948665190398,2.5115828939017417 c0,2.125185525609166 3.522921090914737,5.892559866461779 5.499193898013248,5.892559866461779 c0.8592490465645699,0 2.6636720443501667,1.062592762804583 4.124395423509936,2.414983551828598 c1.374798474503312,1.3523907890240148 3.0932965676324518,2.414983551828598 3.6947709002276508,2.414983551828598 c0.687399237251656,0 2.57774713969371,0.8693940786582952 4.29624523282285,1.9319868414628782 c1.7184980931291398,1.062592762804583 3.608845995571194,1.9319868414628782 4.3821701374793065,1.9319868414628782 c0.687399237251656,0 1.460723379159769,0.5795960524388635 1.7184980931291398,1.3523907890240148 c0.257774713969371,0.7727947365851513 1.031098855877484,1.159192104877727 1.7184980931291398,0.8693940786582952 c0.7733241419081129,-0.28979802621943174 1.890347902442054,0.28979802621943174 2.57774713969371,1.5455894731703026 c0.687399237251656,1.062592762804583 2.234047521067882,2.028586183536022 3.351071281601823,2.028586183536022 c1.202948665190398,0 2.6636720443501667,1.062592762804583 3.608845995571194,2.5115828939017417 c1.202948665190398,1.7387881573165904 2.4918222350372528,2.5115828939017417 4.210320328166393,2.5115828939017417 c1.374798474503312,0 3.608845995571194,0.8693940786582952 4.897719565418049,1.9319868414628782 c2.319972425724339,1.8353874993897343 2.4918222350372528,1.8353874993897343 4.038470518853479,0.28979802621943174 c1.374798474503312,-1.4489901310971587 1.890347902442054,-1.5455894731703026 3.007371662975995,-0.48299671036571956 c1.117023760533941,1.062592762804583 1.6325731884726828,0.8693940786582952 3.2651463769453657,-0.8693940786582952 c1.117023760533941,-1.062592762804583 2.234047521067882,-2.028586183536022 2.57774713969371,-2.028586183536022 c1.117023760533941,0 4.038470518853479,4.250371051218332 4.038470518853479,5.989159208534923 c0,0.9659934207314391 0.343699618625828,1.7387881573165904 0.8592490465645699,1.7387881573165904 c1.288873569846855,0 6.873992372516559,4.540169077437763 8.678415370302156,7.1483513134126495 c1.288873569846855,1.8353874993897343 2.148122616411425,2.318384209755454 3.179221472288909,1.6421888152434465 c1.7184980931291398,-0.9659934207314391 5.327344088700333,0.28979802621943174 5.327344088700333,1.8353874993897343 c0,0.5795960524388635 0.8592490465645699,0.9659934207314391 1.890347902442054,0.7727947365851513 c1.374798474503312,-0.19319868414628782 2.148122616411425,-1.159192104877727 2.4918222350372528,-3.187778288413749 c0.343699618625828,-1.5455894731703026 0.601474332595199,11.688520390850414 0.687399237251656,29.655998016455182 l0.085924904656457,32.457378936576355 l-3.179221472288909,-0.09659934207314391 c-1.804422997785597,0 -3.952545614197022,-0.6761953945120074 -4.725869756105134,-1.3523907890240148 c-1.890347902442054,-1.8353874993897343 -4.9836444700745055,-0.7727947365851513 -4.9836444700745055,1.7387881573165904 c0,2.22178486768231 -1.288873569846855,2.414983551828598 -2.062197711754968,0.38639736829257565 c-0.687399237251656,-2.028586183536022 -1.976272807098511,-1.8353874993897343 -2.4918222350372528,0.48299671036571956 c-0.42962452328228495,1.7387881573165904 -0.945173951221027,1.9319868414628782 -3.952545614197022,1.3523907890240148 c-2.921446758319538,-0.48299671036571956 -3.522921090914737,-0.38639736829257565 -3.522921090914737,0.9659934207314391 c0,0.8693940786582952 -0.601474332595199,1.5455894731703026 -1.288873569846855,1.5455894731703026 c-0.687399237251656,0 -1.288873569846855,-0.6761953945120074 -1.288873569846855,-1.4489901310971587 c0,-0.7727947365851513 -0.601474332595199,-1.4489901310971587 -1.288873569846855,-1.4489901310971587 c-0.7733241419081129,0 -1.804422997785597,-1.062592762804583 -2.319972425724339,-2.414983551828598 c-0.8592490465645699,-2.22178486768231 -1.031098855877484,-2.22178486768231 -2.062197711754968,-0.6761953945120074 c-1.117023760533941,1.5455894731703026 -1.202948665190398,1.4489901310971587 -1.7184980931291398,-0.48299671036571956 c-0.257774713969371,-1.2557914469508709 -0.945173951221027,-1.9319868414628782 -1.374798474503312,-1.6421888152434465 c-0.515549427938742,0.38639736829257565 -1.202948665190398,0.09659934207314391 -1.5466482838162259,-0.6761953945120074 c-0.515549427938742,-0.8693940786582952 -1.031098855877484,0.19319868414628782 -1.7184980931291398,3.091178946340605 c-0.8592490465645699,3.9605730249989004 -1.202948665190398,4.3469703932914765 -3.007371662975995,3.9605730249989004 c-1.117023760533941,-0.19319868414628782 -2.234047521067882,-1.159192104877727 -2.405897330380796,-2.028586183536022 c-0.343699618625828,-1.3523907890240148 -0.42962452328228495,-1.3523907890240148 -0.515549427938742,0.19319868414628782 c-0.085924904656457,1.5455894731703026 -0.7733241419081129,1.8353874993897343 -4.9836444700745055,2.028586183536022 c-0.8592490465645699,0.09659934207314391 -1.804422997785597,0.5795960524388635 -2.234047521067882,1.062592762804583 c-0.343699618625828,0.5795960524388635 -0.945173951221027,0.28979802621943174 -1.5466482838162259,-0.6761953945120074 c-1.031098855877484,-2.125185525609166 -2.835521853663081,-2.22178486768231 -4.468095042135764,-0.28979802621943174 c-1.117023760533941,1.2557914469508709 -1.460723379159769,1.159192104877727 -2.6636720443501667,-0.9659934207314391 zm-21.13752654548842,-7.244950655485793 c0,-1.062592762804583 -0.343699618625828,-1.9319868414628782 -0.8592490465645699,-1.9319868414628782 c-0.42962452328228495,0 -0.8592490465645699,0.8693940786582952 -0.8592490465645699,1.9319868414628782 c0,1.062592762804583 0.42962452328228495,1.9319868414628782 0.8592490465645699,1.9319868414628782 c0.515549427938742,0 0.8592490465645699,-0.8693940786582952 0.8592490465645699,-1.9319868414628782 zm-30.07371662975995,-6.761953945120074 c0,-0.48299671036571956 -0.343699618625828,-0.9659934207314391 -0.8592490465645699,-0.9659934207314391 c-0.42962452328228495,0 -0.8592490465645699,0.48299671036571956 -0.8592490465645699,0.9659934207314391 c0,0.5795960524388635 0.42962452328228495,0.9659934207314391 0.8592490465645699,0.9659934207314391 c0.515549427938742,0 0.8592490465645699,-0.38639736829257565 0.8592490465645699,-0.9659934207314391 zm-293.1757746878313,-4.926566445730339 c-1.031098855877484,-0.6761953945120074 -2.062197711754968,-0.6761953945120074 -3.007371662975995,0 c-1.288873569846855,0.8693940786582952 -1.031098855877484,0.9659934207314391 1.460723379159769,0.9659934207314391 c2.4918222350372528,0 2.749596949006624,-0.09659934207314391 1.5466482838162259,-0.9659934207314391 zm23.027874447930476,-0.5795960524388635 c-0.8592490465645699,-0.9659934207314391 -6.530292753890731,-1.062592762804583 -6.530292753890731,-0.09659934207314391 c0,0.38639736829257565 1.6325731884726828,0.7727947365851513 3.608845995571194,0.7727947365851513 c1.976272807098511,0 3.2651463769453657,-0.28979802621943174 2.921446758319538,-0.6761953945120074 z" stroke-width="0" fill="#d50b0b" fill-opacity="1"/>
    <path stroke="null" id="svg_7" d="m504.47538092557807,132.8072248460012 c0,-0.48299671036571956 0.601474332595199,-0.9659934207314391 1.374798474503312,-0.9659934207314391 c0.687399237251656,0 1.031098855877484,0.48299671036571956 0.7733241419081129,0.9659934207314391 c-0.257774713969371,0.5795960524388635 -0.8592490465645699,0.9659934207314391 -1.374798474503312,0.9659934207314391 c-0.42962452328228495,0 -0.7733241419081129,-0.38639736829257565 -0.7733241419081129,-0.9659934207314391 z" stroke-width="0" fill="#d50b0b" fill-opacity="1"/>
    <path stroke="null" id="svg_8" d="m382.63386612272006,128.84665182100434 c0.171849809312914,-0.6761953945120074 0.8592490465645699,-1.4489901310971587 1.460723379159769,-1.6421888152434465 c0.687399237251656,-0.28979802621943174 1.031098855877484,0.09659934207314391 0.7733241419081129,0.8693940786582952 c-0.171849809312914,0.6761953945120074 -0.8592490465645699,1.4489901310971587 -1.460723379159769,1.6421888152434465 c-0.687399237251656,0.28979802621943174 -1.031098855877484,-0.09659934207314391 -0.7733241419081129,-0.8693940786582952 z" stroke-width="0" fill="#d50b0b" fill-opacity="1"/>
    <path stroke="null" id="svg_9" d="m370.60437947081664,127.01126432161254 c-0.8592490465645699,-1.6421888152434465 -0.8592490465645699,-1.9319868414628782 0.257774713969371,-1.9319868414628782 c0.687399237251656,0 1.288873569846855,0.8693940786582952 1.288873569846855,1.9319868414628782 c0,1.062592762804583 -0.085924904656457,1.9319868414628782 -0.257774713969371,1.9319868414628782 c-0.085924904656457,0 -0.687399237251656,-0.8693940786582952 -1.288873569846855,-1.9319868414628782 z" stroke-width="0" fill="#d50b0b" fill-opacity="1"/>
    <path stroke="null" id="svg_10" d="m280.039529962909,123.43708866491215 c0.515549427938742,-0.19319868414628782 1.5466482838162259,-0.19319868414628782 2.148122616411425,0 c0.515549427938742,0.28979802621943174 0.085924904656457,0.48299671036571956 -1.117023760533941,0.48299671036571956 c-1.202948665190398,0 -1.6325731884726828,-0.19319868414628782 -1.031098855877484,-0.48299671036571956 z" stroke-width="0" fill="#d50b0b" fill-opacity="1"/>
    <path stroke="null" id="svg_11" d="m143.59078136845346,121.2153037972239 c-1.6325731884726828,-1.159192104877727 -0.601474332595199,-2.125185525609166 1.804422997785597,-1.7387881573165904 c1.6325731884726828,0.19319868414628782 1.7184980931291398,0.48299671036571956 0.687399237251656,1.4489901310971587 c-0.7733241419081129,0.6761953945120074 -1.7184980931291398,0.8693940786582952 -2.4918222350372528,0.28979802621943174 z" stroke-width="0" fill="#d50b0b" fill-opacity="1"/>
    <path stroke="null" id="svg_12" d="m553.2807267704411,2.5913117314048577 c-1.374798474503312,-0.19319868414628782 -2.405897330380796,-0.6761953945120074 -2.405897330380796,-1.159192104877727 c0,-1.159192104877727 -14.26353417297186,-1.9319868414628782 -44.25132589807535,-2.5115828939017417 c-42.9624523282285,-0.6761953945120074 -48.03202170295946,-0.9659934207314391 -50.00829451005797,-2.125185525609166 c-1.460723379159769,-0.8693940786582952 -1.890347902442054,-0.8693940786582952 -2.234047521067882,0.09659934207314391 c-0.42962452328228495,1.4489901310971587 -34.11218714861343,1.3523907890240148 -34.88551129052154,-0.19319868414628782 c-0.343699618625828,-0.48299671036571956 -11.256162509995866,-0.8693940786582952 -27.324119680753324,-0.7727947365851513 c-19.590878261672195,0 -27.066344966783955,-0.28979802621943174 -28.01151891800498,-1.062592762804583 c-0.8592490465645699,-0.7727947365851513 -6.01474332595199,-1.159192104877727 -16.5835065986962,-1.2557914469508709 c-8.506565560989243,0 -16.927206217322027,-0.09659934207314391 -18.817554119764083,-0.19319868414628782 c-2.835521853663081,-0.19319868414628782 -3.608845995571194,0.19319868414628782 -4.29624523282285,1.9319868414628782 c-1.031098855877484,2.6081822359748856 -5.15549427938742,3.8639736829257565 -6.959917277173017,2.125185525609166 c-1.202948665190398,-1.159192104877727 -1.202948665190398,-1.3523907890240148 0.257774713969371,-1.9319868414628782 c1.288873569846855,-0.48299671036571956 1.031098855877484,-0.8693940786582952 -1.460723379159769,-2.028586183536022 c-2.4918222350372528,-1.159192104877727 -6.272518039921361,-1.2557914469508709 -21.48122616411425,-0.6761953945120074 c-10.139138749461926,0.38639736829257565 -18.731629215107624,0.48299671036571956 -19.16125373838991,0.19319868414628782 c-0.343699618625828,-0.19319868414628782 -8.076941037706957,-0.28979802621943174 -17.1849809312914,-0.19319868414628782 c-9.022114988927985,0.09659934207314391 -20.707902022206135,0.28979802621943174 -25.863396301593557,0.28979802621943174 c-6.702142563203646,0.09659934207314391 -9.537664416866727,0.48299671036571956 -9.70951422617964,1.3523907890240148 c-0.515549427938742,1.6421888152434465 -1.976272807098511,1.4489901310971587 -1.976272807098511,-0.28979802621943174 c0,-1.7387881573165904 -0.7733241419081129,-1.8353874993897343 -3.952545614197022,-0.48299671036571956 c-1.6325731884726828,0.7727947365851513 -2.4918222350372528,0.7727947365851513 -2.921446758319538,0 c-0.343699618625828,-0.6761953945120074 -6.100668230608447,-1.159192104877727 -15.982032266101001,-1.4489901310971587 c-8.420640656332786,-0.19319868414628782 -20.364202403580308,-0.7727947365851513 -26.55079553884521,-1.3523907890240148 c-6.100668230608447,-0.5795960524388635 -16.06795717075746,-1.062592762804583 -22.08270049670945,-1.062592762804583 c-7.647316514424673,0 -10.998387796026496,-0.28979802621943174 -10.998387796026496,-1.062592762804583 c0,-0.8693940786582952 -3.608845995571194,-0.9659934207314391 -13.576134935720205,-0.48299671036571956 c-12.02948665190398,0.5795960524388635 -31.70628981823263,0.9659934207314391 -32.82331357876657,0.5795960524388635 c-0.257774713969371,-0.09659934207314391 -3.780695804884108,-0.09659934207314391 -7.819166323737587,0 c-5.756968611982619,0.09659934207314391 -7.733241419081129,-0.19319868414628782 -8.764340274958613,-1.3523907890240148 c-1.5466482838162259,-1.7387881573165904 -5.756968611982619,-2.125185525609166 -5.756968611982619,-0.38639736829257565 c0,0.7727947365851513 -8.162865942363414,0.9659934207314391 -32.22183924617137,0.48299671036571956 c-17.70053035923014,-0.28979802621943174 -32.39368905548429,-0.19319868414628782 -32.651463769453656,0.28979802621943174 c-0.257774713969371,0.48299671036571956 -1.117023760533941,0.6761953945120074 -1.976272807098511,0.5795960524388635 c-1.288873569846855,-0.28979802621943174 -1.460723379159769,-1.9319868414628782 -1.7184980931291398,-15.842292099995602 l-0.171849809312914,-15.649093415849315 l290.8558022621069,0 l290.8558022621069,0 l0,23.18384209755454 l0,23.18384209755454 l-13.490210031063748,-0.19319868414628782 c-7.475466705111758,-0.19319868414628782 -14.60723379159769,-0.38639736829257565 -15.896107361444544,-0.5795960524388635 z" stroke-width="0" fill="#d50b0b" fill-opacity="1"/>
    <path stroke="null" id="svg_13" d="m221.3528200825458,-1.465860635667923 c-0.257774713969371,-0.5795960524388635 0.085924904656457,-0.6761953945120074 0.7733241419081129,-0.38639736829257565 c0.8592490465645699,0.38639736829257565 1.374798474503312,0.09659934207314391 1.374798474503312,-0.8693940786582952 c0,-0.9659934207314391 0.601474332595199,-1.2557914469508709 1.7184980931291398,-0.9659934207314391 c1.6325731884726828,0.48299671036571956 1.6325731884726828,0.5795960524388635 -0.515549427938742,1.8353874993897343 c-2.6636720443501667,1.6421888152434465 -2.6636720443501667,1.6421888152434465 -3.351071281601823,0.38639736829257565 z" stroke-width="0" fill="#d50b0b" fill-opacity="1"/>
   </g>
  </g>
 </g>
</svg>